<?xml version="1.0" standalone="no"?>
<!DOCTYPE svg PUBLIC "-//W3C//DTD SVG 20010904//EN"
 "http://www.w3.org/TR/2001/REC-SVG-20010904/DTD/svg10.dtd">
<svg version="1.0" xmlns="http://www.w3.org/2000/svg"
 width="400.000000pt" height="400.000000pt" viewBox="0 0 400.000000 400.000000"
 preserveAspectRatio="xMidYMid meet">

<g transform="translate(0.000000,400.000000) scale(0.100000,-0.100000)"
fill="#000000" stroke="none">
<path d="M1755 3663 c-88 -11 -181 -38 -202 -58 -13 -12 -40 -27 -61 -35 -20
-7 -43 -21 -50 -31 -7 -11 -18 -19 -24 -19 -25 0 -188 -190 -188 -220 0 -6
-23 -44 -51 -86 -28 -41 -57 -94 -64 -118 -8 -24 -21 -58 -30 -75 -23 -45 -31
-183 -15 -267 7 -38 16 -73 20 -79 4 -5 17 -53 29 -105 12 -52 27 -106 32
-119 13 -31 -2 -41 -49 -34 -19 3 -37 2 -41 -3 -3 -5 -15 -14 -26 -20 -18 -10
-20 -22 -20 -100 1 -73 7 -108 34 -194 38 -117 55 -145 66 -111 4 12 11 18 17
15 7 -5 9 -1 5 9 -4 11 -1 17 7 17 18 0 26 -33 14 -54 -7 -13 -5 -21 8 -31 11
-7 22 -11 25 -9 9 5 20 -26 13 -37 -3 -5 3 -9 13 -9 14 0 24 -17 41 -67 12
-38 24 -72 25 -78 2 -5 7 -28 12 -50 4 -22 25 -83 46 -137 22 -53 39 -103 39
-111 0 -9 -37 -51 -82 -95 l-81 -79 -8 -99 c-4 -55 -10 -106 -13 -115 -4 -8
-60 -33 -134 -58 -273 -93 -482 -183 -687 -295 -11 -6 -55 -36 -99 -66 -43
-30 -88 -60 -99 -67 -11 -6 -55 -44 -99 -84 l-78 -72 0 -209 0 -208 2000 0
2000 0 0 88 c0 133 -26 212 -92 280 -42 43 -170 154 -243 210 -97 76 -239 155
-425 237 -47 21 -90 41 -95 46 -6 4 -56 26 -110 47 -55 22 -138 55 -185 75
-47 19 -100 38 -118 42 -38 8 -55 36 -76 122 -8 32 -19 74 -25 93 -5 19 -15
54 -20 76 -12 46 -50 93 -98 120 -40 22 -41 38 -8 100 14 26 25 55 25 65 0 10
6 24 13 31 7 7 26 66 41 131 23 93 32 117 46 117 13 0 16 6 12 25 -3 16 0 25
8 25 7 0 10 -7 6 -15 -7 -19 4 -19 29 -1 21 15 29 57 9 49 -6 -2 -15 1 -20 8
-4 8 -3 10 4 5 8 -4 10 -2 6 8 -3 9 -12 12 -22 9 -9 -4 -14 -3 -10 2 4 4 3 14
-3 21 -7 9 -9 38 -4 84 l7 71 24 -15 c14 -10 25 -12 29 -6 3 6 1 10 -4 10 -6
0 -11 11 -11 24 0 14 -4 28 -10 31 -14 9 -12 25 3 25 9 0 12 9 9 29 -4 29 20
78 45 94 26 16 14 37 -22 37 -19 0 -35 2 -35 4 0 20 35 173 49 216 57 171 55
288 -6 380 -13 19 -23 41 -23 49 0 7 -9 28 -20 46 -16 26 -18 38 -10 66 6 19
10 46 10 62 0 28 -32 100 -54 123 -7 6 -25 26 -39 44 -15 18 -62 50 -105 72
-42 22 -81 44 -86 49 -6 5 -16 9 -23 9 -7 0 -31 11 -53 25 -22 14 -45 25 -52
25 -7 0 -35 9 -63 20 -66 25 -151 49 -200 55 -22 3 -71 10 -110 15 -72 9 -89
10 -140 3z m553 -547 c29 -8 65 -24 81 -36 16 -11 42 -20 58 -20 34 0 64 -37
42 -51 -8 -4 -18 -4 -23 1 -18 18 -26 10 -14 -15 6 -14 15 -25 20 -25 4 0 8
-15 8 -34 0 -19 5 -38 10 -41 14 -8 13 -68 -2 -132 -9 -37 -19 -55 -35 -62
-25 -11 -31 -36 -10 -44 9 -4 9 -8 -1 -15 -11 -7 -10 -10 3 -16 24 -9 37 -7
30 4 -3 6 -2 10 4 10 6 0 8 7 4 16 -4 12 2 10 20 -6 37 -32 66 -117 73 -208 3
-43 12 -113 21 -156 12 -63 13 -91 4 -135 -6 -31 -13 -73 -16 -95 -5 -40 -15
-62 -15 -33 0 10 -4 17 -10 17 -5 0 -10 -9 -10 -21 0 -14 -5 -19 -13 -16 -16
6 -19 -22 -4 -40 6 -9 6 -13 -1 -13 -5 0 -13 -15 -16 -34 -7 -36 -61 -90 -83
-82 -7 3 -10 -1 -7 -9 3 -7 -8 -23 -25 -36 -28 -20 -43 -45 -46 -74 0 -5 -6
-9 -12 -8 -7 2 -15 -6 -18 -17 -4 -11 -11 -20 -16 -20 -6 0 -8 4 -5 9 3 5 -1
29 -10 55 -17 50 -62 94 -105 103 -15 3 -38 16 -50 29 -19 20 -21 27 -11 49
10 22 9 25 -11 25 -12 -1 -37 2 -56 6 -18 4 -36 3 -40 -2 -15 -22 -63 -44 -93
-44 -23 0 -43 9 -66 31 -27 25 -39 30 -75 28 -23 -1 -52 3 -64 9 -20 11 -21
10 -16 -26 6 -43 0 -50 -69 -85 -44 -22 -118 -95 -118 -116 0 -7 -9 -3 -20 7
-18 17 -24 35 -29 91 -1 8 -8 11 -21 8 -10 -3 -19 -2 -18 2 0 3 0 16 -1 29 -1
18 -6 22 -26 18 -14 -3 -26 0 -26 5 -1 5 -3 14 -4 19 -1 6 -3 25 -4 43 -2 28
-4 29 -12 12 -7 -15 -7 -11 -3 14 10 52 11 90 3 85 -11 -7 -21 72 -14 108 12
61 28 88 47 82 10 -3 18 -1 18 5 0 7 23 11 56 11 36 0 61 5 70 15 18 18 70 20
80 4 3 -6 0 -16 -7 -21 -10 -7 -1 -8 26 -3 58 9 64 10 71 18 22 21 38 -12 24
-48 -8 -22 -7 -25 12 -25 19 0 20 -4 14 -41 -4 -23 -15 -68 -26 -100 -11 -32
-20 -65 -20 -74 0 -21 19 -19 27 3 8 22 23 32 49 32 15 0 24 10 32 37 6 20 9
40 6 44 -3 5 0 18 6 29 6 11 11 37 12 57 0 21 4 43 8 48 4 6 11 44 15 86 5 65
4 83 -13 115 -19 39 -22 69 -9 91 11 18 -29 100 -53 108 -12 4 -78 5 -146 3
-82 -2 -127 1 -132 8 -4 6 -15 15 -26 21 -11 6 -20 23 -21 44 -2 18 -8 35 -14
37 -14 5 -15 69 -1 77 6 4 7 11 4 17 -4 6 -10 5 -15 -3 -6 -10 -9 -10 -9 -2 0
7 8 17 18 22 15 9 15 12 2 21 -10 7 -12 12 -4 18 6 4 17 17 23 30 29 55 97
122 124 122 14 0 37 10 52 22 24 19 46 23 139 29 85 5 118 3 145 -8 22 -10 54
-13 90 -10 71 7 149 22 159 31 9 10 61 2 130 -18z m-579 -707 c28 -23 29 -22
-33 -48 -55 -24 -78 -18 -41 11 14 10 25 28 25 39 0 24 18 24 49 -2z m-142
-49 c17 0 25 -17 12 -26 -8 -5 -9 -3 -5 5 5 8 3 12 -5 11 -42 -6 -75 24 -62
56 4 12 10 9 27 -15 11 -17 26 -31 33 -31z m-457 -32 c17 -28 18 -34 5 -48
-20 -23 -19 -30 6 -30 16 0 20 -4 14 -17 -3 -10 -9 -30 -12 -45 -3 -16 -9 -28
-14 -28 -5 0 -6 -6 -3 -14 5 -14 -33 -43 -43 -32 -4 4 -7 181 -4 234 2 23 31
12 51 -20z m598 5 c-10 -2 -26 -2 -35 0 -10 3 -2 5 17 5 19 0 27 -2 18 -5z
m169 -469 c-3 -3 -12 -4 -19 -1 -8 3 -5 6 6 6 11 1 17 -2 13 -5z m-18 -151 c3
-2 -6 -1 -20 1 -13 2 -28 5 -32 5 -5 1 -5 6 -2 11 5 9 36 -1 54 -17z m136 17
c3 -5 -2 -10 -12 -10 -10 0 -36 -3 -58 -7 -47 -7 -41 6 7 17 47 11 56 11 63 0z
m-347 -148 c6 -18 31 -46 41 -48 15 -2 47 -19 59 -31 7 -7 19 -13 27 -13 7 0
23 -12 35 -27 12 -16 19 -22 15 -15 -3 6 -2 12 3 12 12 0 23 -38 12 -45 -4 -3
-22 0 -39 6 -22 8 -35 8 -44 1 -16 -14 -97 25 -97 45 0 8 -4 12 -9 9 -15 -10
-42 6 -37 21 3 8 -4 18 -20 25 -25 12 -26 17 -13 68 2 8 8 18 13 22 13 9 46
-9 54 -30z m562 -13 c12 -36 11 -38 -25 -77 -21 -22 -44 -38 -52 -35 -8 3 -13
-2 -14 -13 -1 -14 -3 -13 -9 6 -8 23 -8 24 -9 3 -1 -32 -62 -48 -104 -27 -20
11 -26 18 -18 24 7 4 12 11 11 16 -1 5 19 15 43 22 30 8 47 19 50 32 3 11 12
20 21 20 9 0 16 5 16 10 0 6 7 22 16 35 24 37 59 30 74 -16z m-225 1 c-11 -5
-29 -8 -40 -8 -16 0 -15 2 5 8 34 11 60 11 35 0z m-88 -6 c-3 -3 -12 -4 -19
-1 -8 3 -5 6 6 6 11 1 17 -2 13 -5z m431 -418 c12 -33 8 -66 -9 -66 -5 0 -9
-5 -9 -10 0 -12 -10 -25 -57 -74 -18 -18 -30 -36 -26 -40 16 -16 -97 -97 -177
-126 -36 -13 -74 -29 -85 -36 -54 -32 -130 -24 -183 21 -32 26 -47 71 -27 79
6 2 12 23 13 45 2 32 -2 41 -15 41 -9 0 -14 2 -11 5 4 5 44 -1 136 -21 12 -2
22 0 22 5 0 5 -15 11 -32 13 -18 2 -31 5 -28 8 3 3 -5 16 -16 28 -19 20 -20
27 -11 53 8 20 18 29 34 29 12 0 24 -4 27 -9 5 -8 46 -7 98 2 20 4 25 2 21 -9
-4 -11 7 -14 52 -14 38 0 54 -4 49 -11 -3 -6 -15 -8 -26 -6 -19 5 -19 5 -2
-14 10 -11 20 -16 23 -12 10 13 50 33 66 33 9 0 12 6 9 15 -4 10 0 15 15 15
12 0 20 6 19 13 -2 6 2 11 9 10 7 -2 10 4 6 13 -3 9 0 14 8 12 8 -2 13 5 12
15 0 12 4 16 13 13 8 -3 24 -1 36 4 33 13 33 13 46 -24z m162 -691 c7 -9 8
-15 2 -15 -5 0 -12 7 -16 15 -3 8 -4 15 -2 15 2 0 9 -7 16 -15z"/>
<path d="M2100 2633 c-49 -7 -67 -23 -65 -56 2 -18 6 -39 10 -49 3 -9 -2 -33
-14 -56 -28 -55 -30 -88 -11 -153 20 -64 64 -136 75 -120 3 6 15 11 26 11 14
0 19 7 19 25 0 22 4 25 38 26 20 1 45 0 55 -1 10 -1 26 7 35 18 14 16 19 17
30 6 6 -7 12 -19 12 -26 0 -10 3 -9 9 1 5 8 29 15 56 17 45 3 95 25 95 44 0 4
7 16 16 24 11 11 12 21 6 33 -7 12 -5 22 8 36 14 14 17 29 13 56 -7 49 -35
110 -50 111 -7 0 -13 5 -13 10 0 6 -9 10 -19 10 -11 0 -22 4 -26 10 -3 5 -41
8 -85 6 -44 -2 -96 0 -117 4 -21 5 -47 10 -58 12 -11 2 -31 3 -45 1z m170
-134 c0 -6 10 -9 23 -7 13 3 24 0 24 -7 0 -6 -14 -9 -34 -7 -20 3 -33 10 -33
18 0 8 5 14 10 14 6 0 10 -5 10 -11z m-60 -156 c32 -16 9 -17 -42 -1 -22 6
-44 21 -50 32 -6 12 -7 18 -4 14 4 -3 17 3 28 14 l21 21 11 -34 c6 -18 22 -39
36 -46z m130 28 c0 -12 -12 -23 -32 -31 -18 -6 -41 -16 -50 -21 -13 -7 -16 -5
-12 6 4 8 12 15 20 15 7 0 21 11 31 25 21 29 43 32 43 6z"/>
<path d="M2077 2063 c3 -10 11 -25 18 -33 7 -8 16 -24 20 -35 8 -19 9 -19 12
2 5 28 -23 83 -42 83 -9 0 -12 -6 -8 -17z"/>
<path d="M2493 1915 c-6 -6 -8 -18 -3 -24 5 -9 9 -5 13 10 7 28 6 31 -10 14z"/>
<path d="M2119 1005 c-18 -19 -36 -32 -42 -28 -6 3 -7 1 -3 -5 4 -7 2 -12 -3
-12 -16 0 -13 -16 5 -34 8 -9 12 -20 9 -26 -4 -6 -12 -4 -22 5 -24 24 -29 8
-7 -22 19 -25 33 -32 35 -15 0 4 8 15 16 25 9 9 12 17 7 17 -5 0 -1 5 9 11 9
5 17 21 17 35 0 25 18 63 35 76 6 5 3 8 -7 8 -10 0 -32 -16 -49 -35z"/>
<path d="M2058 1023 c7 -3 16 -2 19 1 4 3 -2 6 -13 5 -11 0 -14 -3 -6 -6z"/>
<path d="M1837 959 c7 -7 15 -10 18 -7 3 3 -2 9 -12 12 -14 6 -15 5 -6 -5z"/>
<path d="M2763 2372 c-16 -10 -29 -72 -15 -72 6 0 12 6 15 13 2 6 8 0 12 -15
9 -33 -2 -81 -15 -73 -6 4 -6 -4 0 -20 6 -15 10 -43 10 -62 0 -56 8 -36 29 75
25 129 12 185 -36 154z"/>
<path d="M2660 2081 c-19 -69 -13 -74 56 -39 65 32 58 71 -13 74 -30 1 -34 -3
-43 -35z"/>
</g>
</svg>
